<svg width="68" height="69" viewBox="0 0 68 69" fill="none" xmlns="http://www.w3.org/2000/svg">
<circle cx="33.5217" cy="34.1102" r="12.8383" transform="rotate(-19.9862 33.5217 34.1102)" fill="#ED3B03"/>
<ellipse cx="28.2506" cy="18.701" rx="5.63632" ry="10.3333" transform="rotate(-19.9862 28.2506 18.701)" fill="#ED3B03"/>
<ellipse cx="18.701" cy="39.1671" rx="5.63632" ry="10.3333" transform="rotate(-109.986 18.701 39.1671)" fill="#ED3B03"/>
<ellipse cx="17.6821" cy="26.2307" rx="5.63632" ry="10.3333" transform="rotate(-64.9862 17.6821 26.2307)" fill="#ED3B03"/>
<ellipse cx="48.1806" cy="40.4613" rx="5.63632" ry="10.3333" transform="rotate(-64.9862 48.1806 40.4613)" fill="#ED3B03"/>
<ellipse cx="41.2238" cy="17.6687" rx="5.63632" ry="10.3333" transform="rotate(25.0138 41.2238 17.6687)" fill="#ED3B03"/>
<ellipse cx="26.9931" cy="48.1672" rx="5.63632" ry="10.3333" transform="rotate(25.0138 26.9931 48.1672)" fill="#ED3B03"/>
<ellipse cx="48.7167" cy="28.2505" rx="5.63632" ry="10.3333" transform="rotate(-109.986 48.7167 28.2505)" fill="#ED3B03"/>
<ellipse cx="39.5953" cy="49.8937" rx="5.63632" ry="10.3333" transform="rotate(-19.9862 39.5953 49.8937)" fill="#ED3B03"/>
</svg>
