<svg width="23" height="22" viewBox="0 0 23 22" fill="none" xmlns="http://www.w3.org/2000/svg">
<path d="M11.3014 0C9.81725 0 8.34767 0.291587 6.97652 0.858113C5.60538 1.42464 4.35952 2.25501 3.31009 3.30181C1.19068 5.41593 0 8.28329 0 11.2731C0 16.2558 3.24349 20.4832 7.73014 21.9825C8.29521 22.0727 8.47603 21.7233 8.47603 21.4189V19.5137C5.34555 20.1901 4.67877 18.0031 4.67877 18.0031C4.1589 16.6955 3.42432 16.346 3.42432 16.346C2.39589 15.6471 3.50342 15.6696 3.50342 15.6696C4.63356 15.7485 5.23253 16.8307 5.23253 16.8307C6.21575 18.5442 7.87705 18.037 8.52123 17.7664C8.62294 17.0336 8.91678 16.5376 9.23322 16.2558C6.72432 15.974 4.0911 15.0045 4.0911 10.7094C4.0911 9.45813 4.52055 8.45482 5.25514 7.65443C5.14212 7.37261 4.74658 6.2002 5.36815 4.67834C5.36815 4.67834 6.31747 4.37396 8.47603 5.82819C9.36884 5.58018 10.3408 5.45618 11.3014 5.45618C12.262 5.45618 13.2339 5.58018 14.1267 5.82819C16.2853 4.37396 17.2346 4.67834 17.2346 4.67834C17.8562 6.2002 17.4606 7.37261 17.3476 7.65443C18.0822 8.45482 18.5116 9.45813 18.5116 10.7094C18.5116 15.0158 15.8671 15.9627 13.3469 16.2445C13.7538 16.594 14.1267 17.2817 14.1267 18.3301V21.4189C14.1267 21.7233 14.3075 22.084 14.8839 21.9825C19.3705 20.4719 22.6027 16.2558 22.6027 11.2731C22.6027 9.79269 22.3104 8.32678 21.7425 6.95907C21.1745 5.59135 20.3421 4.34862 19.2926 3.30181C18.2432 2.25501 16.9974 1.42464 15.6262 0.858113C14.2551 0.291587 12.7855 0 11.3014 0Z" fill="#FC440F"/>
</svg>
