<svg width="22" height="22" viewBox="0 0 22 22" fill="none" xmlns="http://www.w3.org/2000/svg">
<path d="M4.88889 2.44444C4.88889 3.74244 4.02111 4.85956 2.44322 4.85956C0.958222 4.85956 0 3.806 0 2.508C0 1.17578 0.928889 0 2.44444 0C3.96 0 4.85956 1.11222 4.88889 2.44444ZM0 22V6.11111H4.88889V22H0ZM7.33333 11.5427C7.33333 9.65433 7.271 8.07644 7.20867 6.71367H11.6013L11.8189 8.81956H11.9118C12.5302 7.82833 14.0458 6.37511 16.5831 6.37511C19.6778 6.37511 22 8.44678 22 12.9042V22H17.1111V13.6143C17.1111 11.6661 16.3692 10.1799 14.6667 10.1799C13.3687 10.1799 12.7184 11.231 12.3774 12.0976C12.2528 12.408 12.2222 12.8407 12.2222 13.2746V22H7.33333V11.5427Z" fill="#FC440F"/>
</svg>
