<svg width="97" height="98" viewBox="0 0 97 98" fill="none" xmlns="http://www.w3.org/2000/svg">
<circle cx="47.4663" cy="48.82" r="18.1789" transform="rotate(-19.9862 47.4663 48.82)" fill="#ED3B03"/>
<ellipse cx="40.0025" cy="27.0007" rx="7.98098" ry="14.6318" transform="rotate(-19.9862 40.0025 27.0007)" fill="#ED3B03"/>
<ellipse cx="26.4805" cy="55.9806" rx="7.98098" ry="14.6318" transform="rotate(-109.986 26.4805 55.9806)" fill="#ED3B03"/>
<ellipse cx="25.0376" cy="37.6627" rx="7.98098" ry="14.6318" transform="rotate(-64.9862 25.0376 37.6627)" fill="#ED3B03"/>
<ellipse cx="68.2232" cy="57.8131" rx="7.98098" ry="14.6318" transform="rotate(-64.9862 68.2232 57.8131)" fill="#ED3B03"/>
<ellipse cx="58.3724" cy="25.539" rx="7.98098" ry="14.6318" transform="rotate(25.0138 58.3724 25.539)" fill="#ED3B03"/>
<ellipse cx="38.2219" cy="68.7246" rx="7.98098" ry="14.6318" transform="rotate(25.0138 38.2219 68.7246)" fill="#ED3B03"/>
<ellipse cx="68.9824" cy="40.5228" rx="7.98098" ry="14.6318" transform="rotate(-109.986 68.9824 40.5228)" fill="#ED3B03"/>
<ellipse cx="56.0664" cy="71.1694" rx="7.98098" ry="14.6318" transform="rotate(-19.9862 56.0664 71.1694)" fill="#ED3B03"/>
<path d="M47.995 65.8067C38.6252 65.8067 31.9236 58.981 31.9236 49.425C31.9236 39.745 38.439 32.9814 47.8088 32.9814C57.5509 32.9814 63.632 39.3727 63.632 49.4871L63.632 51.9071L41.1072 52.0312C41.6657 56.1266 43.9616 58.0502 48.1811 58.0502C51.7801 58.0502 54.3242 56.7471 55.0068 54.5133L63.7561 54.5133C62.6392 61.401 56.4961 65.8067 47.995 65.8067ZM47.8709 40.7378C44.0857 40.7378 41.976 42.4132 41.2313 46.1363L54.1381 46.1363C54.1381 42.8476 51.7181 40.7378 47.8709 40.7378Z" fill="white"/>
</svg>
